# xmcd
#
# Track frame offsets: 
#        183
#        27475
#        46273
#        86818
#        120078
#        164290
#        187270
#        220810
#        252490
#
# Disc length: 3791 seconds
#
# Revision: 2
# Processed by: cddbd v1.5.2PL0 Copyright (c) Steve Scherf et al.
# Submitted via: ExactAudioCopy v1.1
#
DISCID=7a0ecd09
DTITLE=Alicia de Larrocha - Complete Decca Recordings [Disc 35]
DYEAR=1986
DGENRE=Classical
TTITLE0=Albéniz: Iberia, Book 1 - Evocación
TTITLE1=Albéniz: Iberia, Book 1 - El Puerto
TTITLE2=Albéniz: Iberia, Book 1 - Dieu À Seville
TTITLE3=Albéniz: Iberia, Book 2 - Rondeña
TTITLE4=Albéniz: Iberia, Book 2 - Almería
TTITLE5=Albéniz: Iberia, Book 2 - Triana
TTITLE6=Albéniz: Iberia, Book 3 - El Albaicín
TTITLE7=Albéniz: Iberia, Book 3 - El Polo
TTITLE8=Albéniz: Iberia, Book 3 - Lavapies
EXTD=
EXTT0=
EXTT1=
EXTT2=
EXTT3=
EXTT4=
EXTT5=
EXTT6=
EXTT7=
EXTT8=
PLAYORDER=
